<?xml version="1.0" encoding="UTF-8" standalone="no"?>
<!-- Generator: Adobe Illustrator 28.1.0, SVG Export Plug-In . SVG Version: 6.00 Build 0)  -->

<svg
   version="1.1"
   id="Layer_4_copy"
   x="0px"
   y="0px"
   viewBox="0 0 64 64"
   xml:space="preserve"
   sodipodi:docname="slang-logo-grey.svg"
   inkscape:version="1.4 (e7c3feb1, 2024-10-09)"
   width="64"
   height="64"
   xmlns:inkscape="http://www.inkscape.org/namespaces/inkscape"
   xmlns:sodipodi="http://sodipodi.sourceforge.net/DTD/sodipodi-0.dtd"
   xmlns="http://www.w3.org/2000/svg"
   xmlns:svg="http://www.w3.org/2000/svg"><defs
   id="defs14" /><sodipodi:namedview
   id="namedview14"
   pagecolor="#000000"
   bordercolor="#000000"
   borderopacity="0.25"
   inkscape:showpageshadow="2"
   inkscape:pageopacity="0.0"
   inkscape:pagecheckerboard="0"
   inkscape:deskcolor="#ffd1d1"
   inkscape:zoom="9.6534363"
   inkscape:cx="28.798035"
   inkscape:cy="33.925743"
   inkscape:window-width="1512"
   inkscape:window-height="916"
   inkscape:window-x="0"
   inkscape:window-y="38"
   inkscape:window-maximized="1"
   inkscape:current-layer="Layer_4_copy" /><g
   id="g14"
   style="display:inline"
   transform="matrix(1.3333198,0,0,1.3333198,-0.11239207,-1.3466196)">
	
		
	
	
		
	<path
   style="fill:#e0e0e0;fill-opacity:1;stroke:none;stroke-opacity:1"
   d="M 29.8,6.5 C 25.8,4.1 21.2,3.3 17,4.8 12,6.5 8.7,10.9 7.5,16.4 c 3.4,-2.5 7.8,-5 12.8,-7 3.3,-1.3 6.5,-2.2 9.5,-2.9 z"
   id="path9" />
	<path
   class="st2"
   d="M 44.3,8 C 42.7,5.6 38,4.8 29.8,6.5 c -3,0.6 -6.2,1.6 -9.5,2.9 -5,2 -9.4,4.4 -12.8,7 -5,3.7 -7.9,7.7 -7,10.5 0.7,2.3 3.9,3.4 8.4,3.3 4.5,-0.2 10.2,-1.6 16,-4.4 -7,1.6 -13.3,0.3 -13.2,-1.7 0.2,-3 7.3,-8.6 18,-12.6 1.5,-0.6 3,-1.1 4.3,-1.5 4.6,-1.4 8.1,-2 10.3,-1.8 0,-0.1 0,-0.1 0,-0.2 z"
   id="path10"
   style="fill:#e0e0e0;fill-opacity:1" />
	<path
   class="st3"
   d="M 47.7,20.3 C 47,17.9 43.6,16.8 38.8,17 c -4.4,0.2 -9.9,1.7 -15.5,4.4 7,-1.6 13.3,-0.3 13.2,1.7 -0.2,3 -7.3,8.6 -18,12.6 -1.8,0.7 -3.5,1.2 -5,1.7 C 9.3,38.7 6,39.2 3.8,39 v 0.1 c 1.5,2.4 5.8,3.2 13.4,1.7 3.3,-0.6 6.9,-1.7 10.6,-3.1 5,-2 9.4,-4.4 12.8,-7 5.1,-3.6 7.9,-7.6 7.1,-10.4 z"
   id="path11"
   style="fill:#e0e0e0;fill-opacity:1" />
	
		
	
	
		
	
<path
   class="st0"
   d="m 17.3,40.9 c 4.233917,2.9 9.274295,3.9 13.810635,2.3 5.241992,-1.8 8.669449,-6.6 9.778332,-12.4 -3.427457,2.5 -7.862989,5 -12.903366,7 C 24.154914,39.2 20.525842,40.3 17.3,40.9 Z"
   id="path14"
   style="fill:#e0e0e0;fill-opacity:1" /></g>
</svg>
