<?xml version="1.0" encoding="UTF-8" standalone="no"?>
<!-- Generator: Adobe Illustrator 28.1.0, SVG Export Plug-In . SVG Version: 6.00 Build 0)  -->

<svg
   version="1.1"
   id="Layer_4_copy"
   x="0px"
   y="0px"
   viewBox="0 0 64 64"
   xml:space="preserve"
   sodipodi:docname="slang-logo.svg"
   width="64"
   height="64"
   inkscape:version="1.4 (e7c3feb1, 2024-10-09)"
   xmlns:inkscape="http://www.inkscape.org/namespaces/inkscape"
   xmlns:sodipodi="http://sodipodi.sourceforge.net/DTD/sodipodi-0.dtd"
   xmlns="http://www.w3.org/2000/svg"
   xmlns:svg="http://www.w3.org/2000/svg"><defs
   id="defs14" /><sodipodi:namedview
   id="namedview14"
   pagecolor="#ffffff"
   bordercolor="#000000"
   borderopacity="0.25"
   inkscape:showpageshadow="2"
   inkscape:pageopacity="0.0"
   inkscape:pagecheckerboard="0"
   inkscape:deskcolor="#d1d1d1"
   inkscape:zoom="0.54166667"
   inkscape:cx="24"
   inkscape:cy="23.076923"
   inkscape:window-width="1512"
   inkscape:window-height="916"
   inkscape:window-x="0"
   inkscape:window-y="38"
   inkscape:window-maximized="1"
   inkscape:current-layer="Layer_4_copy" />
<style
   type="text/css"
   id="style1">
	.st0{fill:url(#SVGID_1_);}
	.st1{fill:url(#SVGID_00000132804638302635531770000000020906166920850593_);}
	.st2{fill:#FF6633;}
	.st3{fill:#1FBEC9;}
	.st4{fill:url(#SVGID_00000114055214857394753080000010913936985292139418_);}
	.st5{fill:url(#SVGID_00000003790084823987131500000015292558714217134990_);}
</style>
<g
   id="g14"
   transform="matrix(1.3333198,0,0,1.3333198,-0.11239207,-1.3466196)">
	
		<linearGradient
   id="SVGID_1_"
   gradientUnits="userSpaceOnUse"
   x1="29.264799"
   y1="413.80551"
   x2="33.353001"
   y2="408.4859"
   gradientTransform="matrix(1,0,0,-1,0,450)">
		<stop
   offset="0"
   style="stop-color:#15768C"
   id="stop1" />
		<stop
   offset="0.1694"
   style="stop-color:#188B9D"
   id="stop2" />
		<stop
   offset="0.3807"
   style="stop-color:#1A9EAC"
   id="stop3" />
		<stop
   offset="0.5982"
   style="stop-color:#1CA9B5"
   id="stop4" />
		<stop
   offset="0.8297"
   style="stop-color:#1CADB8"
   id="stop5" />
	</linearGradient>
	<path
   class="st0"
   d="m 17.3,40.9 c 4.2,2.9 9.2,3.9 13.7,2.3 5.2,-1.8 8.6,-6.6 9.7,-12.4 -3.4,2.5 -7.8,5 -12.8,7 -3.8,1.4 -7.4,2.5 -10.6,3.1 z"
   id="path5"
   style="fill:url(#SVGID_1_)" />
	
		<linearGradient
   id="SVGID_00000092419969477283934180000001876472608054827421_"
   gradientUnits="userSpaceOnUse"
   x1="8.2889004"
   y1="436.52441"
   x2="24.297899"
   y2="444.9101"
   gradientTransform="matrix(1,0,0,-1,0,450)">
		<stop
   offset="6.610756e-02"
   style="stop-color:#FF6633"
   id="stop6" />
		<stop
   offset="0.2371"
   style="stop-color:#FF7133"
   id="stop7" />
		<stop
   offset="0.6373"
   style="stop-color:#FF8733"
   id="stop8" />
		<stop
   offset="0.8966"
   style="stop-color:#FF8F33"
   id="stop9" />
	</linearGradient>
	<path
   style="fill:url(#SVGID_00000092419969477283934180000001876472608054827421_)"
   d="M 29.8,6.5 C 25.8,4.1 21.2,3.3 17,4.8 12,6.5 8.7,10.9 7.5,16.4 c 3.4,-2.5 7.8,-5 12.8,-7 3.3,-1.3 6.5,-2.2 9.5,-2.9 z"
   id="path9" />
	<path
   class="st2"
   d="M 44.3,8 C 42.7,5.6 38,4.8 29.8,6.5 c -3,0.6 -6.2,1.6 -9.5,2.9 -5,2 -9.4,4.4 -12.8,7 -5,3.7 -7.9,7.7 -7,10.5 0.7,2.3 3.9,3.4 8.4,3.3 4.5,-0.2 10.2,-1.6 16,-4.4 -7,1.6 -13.3,0.3 -13.2,-1.7 0.2,-3 7.3,-8.6 18,-12.6 1.5,-0.6 3,-1.1 4.3,-1.5 4.6,-1.4 8.1,-2 10.3,-1.8 0,-0.1 0,-0.1 0,-0.2 z"
   id="path10" />
	<path
   class="st3"
   d="M 47.7,20.3 C 47,17.9 43.6,16.8 38.8,17 c -4.4,0.2 -9.9,1.7 -15.5,4.4 7,-1.6 13.3,-0.3 13.2,1.7 -0.2,3 -7.3,8.6 -18,12.6 -1.8,0.7 -3.5,1.2 -5,1.7 C 9.3,38.7 6,39.2 3.8,39 v 0.1 c 1.5,2.4 5.8,3.2 13.4,1.7 3.3,-0.6 6.9,-1.7 10.6,-3.1 5,-2 9.4,-4.4 12.8,-7 5.1,-3.6 7.9,-7.6 7.1,-10.4 z"
   id="path11" />
	
		<linearGradient
   id="SVGID_00000164471461986112018580000013660860342387948467_"
   gradientUnits="userSpaceOnUse"
   x1="8.0110998"
   y1="425.53271"
   x2="31.143101"
   y2="436.4978"
   gradientTransform="matrix(1,0,0,-1,0,450)">
		<stop
   offset="0"
   style="stop-color:#ED5F2F"
   id="stop11" />
		<stop
   offset="1"
   style="stop-color:#FF6633"
   id="stop12" />
	</linearGradient>
	<path
   style="fill:url(#SVGID_00000164471461986112018580000013660860342387948467_)"
   d="m 11.7,24.1 c 0.2,-3 7.3,-8.6 18,-12.6 1.5,-0.6 3,-1.1 4.3,-1.5 -1.5,-1.8 -2.3,-2.3 -4.2,-3.4 -3,0.6 -6.2,1.6 -9.5,2.9 -5,2 -9.4,4.4 -12.8,7 -0.9,4 -0.6,8.5 1,12.9 0.1,0.3 0.2,0.5 0.3,0.8 4.5,-0.2 10.2,-1.6 16,-4.4 -7,1.5 -13.3,0.3 -13.1,-1.7 z"
   id="path12" />
	
		<linearGradient
   id="SVGID_00000078033980990147364440000016603895276689045644_"
   gradientUnits="userSpaceOnUse"
   x1="13.5549"
   y1="415.77911"
   x2="35.558998"
   y2="424.16159"
   gradientTransform="matrix(1,0,0,-1,0,450)">
		<stop
   offset="0"
   style="stop-color:#1BACB5"
   id="stop13" />
		<stop
   offset="0.9115"
   style="stop-color:#1FBEC9"
   id="stop14" />
	</linearGradient>
	<path
   style="fill:url(#SVGID_00000078033980990147364440000016603895276689045644_)"
   d="m 39.5,18.7 c -0.2,-0.5 -0.4,-1.1 -0.6,-1.6 -4.4,0.2 -9.9,1.7 -15.5,4.4 7,-1.6 13.3,-0.3 13.2,1.7 -0.2,3 -7.3,8.6 -18,12.6 -1.8,0.7 -3.5,1.2 -5,1.7 1.4,1.8 2,2.3 3.8,3.5 3.3,-0.6 6.9,-1.7 10.6,-3.1 5,-2 9.4,-4.4 12.8,-7 C 41.3,27 41,22.8 39.5,18.7 Z"
   id="path14" />
</g>
</svg>
